<svg xmlns="http://www.w3.org/2000/svg" viewBox="0 0 75 60"><defs><style>.cls-1{fill:#fcce00;}.cls-2{fill:#f3ac05;}.cls-3,.cls-7{fill:#fff;}.cls-3{opacity:0.5;}.cls-4{fill:#dc840d;}.cls-5{opacity:0.8;}.cls-6{fill:#f7edd7;}.cls-8{fill:#8bad26;}.cls-9{fill:#8d681b;}</style></defs><g id="Слой_2" data-name="Слой 2"><rect class="cls-1" x="32.89" y="20.74" width="29" height="5.09" rx="0.43"/><rect class="cls-2" x="43.36" y="20.74" width="14.32" height="5.09"/><rect class="cls-3" x="51.32" y="20.74" width="3.15" height="5.09"/><path class="cls-4" d="M61.46,20.74H33.31a.43.43,0,0,0-.42.43v4.24a.42.42,0,0,0,.42.42H61.46a.43.43,0,0,0,.43-.42V21.17A.44.44,0,0,0,61.46,20.74Zm-.1,4.32a.29.29,0,0,1-.29.3H33.71a.29.29,0,0,1-.3-.3V21.52a.29.29,0,0,1,.3-.3H61.07a.29.29,0,0,1,.29.3Z"/><rect class="cls-4" x="34.47" y="20.75" width="0.52" height="5.08"/><rect class="cls-4" x="36.05" y="20.75" width="0.52" height="5.08"/><rect class="cls-4" x="37.63" y="20.75" width="0.52" height="5.08"/><rect class="cls-4" x="39.21" y="20.75" width="0.52" height="5.08"/><rect class="cls-4" x="40.8" y="20.75" width="0.52" height="5.08"/><rect class="cls-4" x="42.38" y="20.75" width="0.52" height="5.08"/><rect class="cls-4" x="43.96" y="20.75" width="0.52" height="5.08"/><rect class="cls-4" x="45.54" y="20.75" width="0.52" height="5.08"/><rect class="cls-4" x="47.12" y="20.75" width="0.52" height="5.08"/><rect class="cls-4" x="48.71" y="20.75" width="0.52" height="5.08"/><rect class="cls-4" x="50.29" y="20.75" width="0.52" height="5.08"/><rect class="cls-4" x="51.87" y="20.75" width="0.52" height="5.08"/><rect class="cls-4" x="53.45" y="20.75" width="0.52" height="5.08"/><rect class="cls-4" x="55.04" y="20.75" width="0.52" height="5.08"/><rect class="cls-4" x="56.62" y="20.75" width="0.52" height="5.08"/><rect class="cls-4" x="58.2" y="20.75" width="0.52" height="5.08"/><rect class="cls-4" x="59.78" y="20.75" width="0.52" height="5.08"/><rect class="cls-1" x="30.78" y="26.03" width="29" height="5.09" rx="0.43"/><rect class="cls-2" x="41.25" y="26.03" width="14.32" height="5.09"/><rect class="cls-3" x="49.21" y="26.03" width="3.15" height="5.09"/><path class="cls-4" d="M59.35,26H31.21a.42.42,0,0,0-.43.42v4.24a.43.43,0,0,0,.43.43H59.35a.43.43,0,0,0,.43-.43V26.45A.42.42,0,0,0,59.35,26Zm-.09,4.31a.29.29,0,0,1-.3.3H31.6a.3.3,0,0,1-.3-.3V26.8a.3.3,0,0,1,.3-.3H59a.29.29,0,0,1,.3.3Z"/><rect class="cls-4" x="32.36" y="26.03" width="0.52" height="5.08"/><rect class="cls-4" x="33.95" y="26.03" width="0.52" height="5.08"/><rect class="cls-4" x="35.53" y="26.03" width="0.52" height="5.08"/><rect class="cls-4" x="37.11" y="26.03" width="0.52" height="5.08"/><rect class="cls-4" x="38.69" y="26.03" width="0.52" height="5.08"/><rect class="cls-4" x="40.28" y="26.03" width="0.52" height="5.08"/><rect class="cls-4" x="41.86" y="26.03" width="0.52" height="5.08"/><rect class="cls-4" x="43.44" y="26.03" width="0.52" height="5.08"/><rect class="cls-4" x="45.02" y="26.03" width="0.52" height="5.08"/><rect class="cls-4" x="46.6" y="26.03" width="0.52" height="5.08"/><rect class="cls-4" x="48.19" y="26.03" width="0.52" height="5.08"/><rect class="cls-4" x="49.77" y="26.03" width="0.52" height="5.08"/><rect class="cls-4" x="51.35" y="26.03" width="0.52" height="5.08"/><rect class="cls-4" x="52.93" y="26.03" width="0.52" height="5.08"/><rect class="cls-4" x="54.51" y="26.03" width="0.52" height="5.08"/><rect class="cls-4" x="56.1" y="26.03" width="0.52" height="5.08"/><rect class="cls-4" x="57.68" y="26.03" width="0.52" height="5.08"/><rect class="cls-1" x="33.19" y="31.31" width="29" height="5.09" rx="0.43"/><rect class="cls-2" x="43.66" y="31.31" width="14.32" height="5.09"/><rect class="cls-3" x="51.62" y="31.31" width="3.15" height="5.09"/><path class="cls-4" d="M61.76,31.31H33.62a.43.43,0,0,0-.43.43V36a.43.43,0,0,0,.43.43H61.76a.43.43,0,0,0,.43-.43V31.74A.43.43,0,0,0,61.76,31.31Zm-.09,4.31a.3.3,0,0,1-.3.3H34a.29.29,0,0,1-.3-.3V32.08a.29.29,0,0,1,.3-.3H61.37a.3.3,0,0,1,.3.3Z"/><rect class="cls-4" x="34.77" y="31.31" width="0.52" height="5.08"/><rect class="cls-4" x="36.35" y="31.31" width="0.52" height="5.08"/><rect class="cls-4" x="37.94" y="31.31" width="0.52" height="5.08"/><rect class="cls-4" x="39.52" y="31.31" width="0.52" height="5.08"/><rect class="cls-4" x="41.1" y="31.31" width="0.52" height="5.08"/><rect class="cls-4" x="42.68" y="31.31" width="0.52" height="5.08"/><rect class="cls-4" x="44.26" y="31.31" width="0.52" height="5.08"/><rect class="cls-4" x="45.85" y="31.31" width="0.52" height="5.08"/><rect class="cls-4" x="47.43" y="31.31" width="0.52" height="5.08"/><rect class="cls-4" x="49.01" y="31.31" width="0.52" height="5.08"/><rect class="cls-4" x="50.59" y="31.31" width="0.52" height="5.08"/><rect class="cls-4" x="52.18" y="31.31" width="0.52" height="5.08"/><rect class="cls-4" x="53.76" y="31.31" width="0.52" height="5.08"/><rect class="cls-4" x="55.34" y="31.31" width="0.52" height="5.08"/><rect class="cls-4" x="56.92" y="31.31" width="0.52" height="5.08"/><rect class="cls-4" x="58.5" y="31.31" width="0.52" height="5.08"/><rect class="cls-4" x="60.09" y="31.31" width="0.52" height="5.08"/><rect class="cls-1" x="30.62" y="36.59" width="29" height="5.09" rx="0.43"/><rect class="cls-2" x="41.09" y="36.59" width="14.32" height="5.09"/><rect class="cls-3" x="49.05" y="36.59" width="3.15" height="5.09"/><path class="cls-4" d="M59.19,36.59H31.05a.43.43,0,0,0-.43.43v4.23a.43.43,0,0,0,.43.43H59.19a.43.43,0,0,0,.43-.43V37A.43.43,0,0,0,59.19,36.59Zm-.09,4.32a.3.3,0,0,1-.3.29H31.44a.29.29,0,0,1-.3-.29V37.36a.29.29,0,0,1,.3-.3H58.8a.3.3,0,0,1,.3.3Z"/><rect class="cls-4" x="32.2" y="36.59" width="0.52" height="5.08"/><rect class="cls-4" x="33.78" y="36.59" width="0.52" height="5.08"/><rect class="cls-4" x="35.36" y="36.59" width="0.52" height="5.08"/><rect class="cls-4" x="36.95" y="36.59" width="0.52" height="5.08"/><rect class="cls-4" x="38.53" y="36.59" width="0.52" height="5.08"/><rect class="cls-4" x="40.11" y="36.59" width="0.52" height="5.08"/><rect class="cls-4" x="41.69" y="36.59" width="0.52" height="5.08"/><rect class="cls-4" x="43.28" y="36.59" width="0.52" height="5.08"/><rect class="cls-4" x="44.86" y="36.59" width="0.52" height="5.08"/><rect class="cls-4" x="46.44" y="36.59" width="0.52" height="5.08"/><rect class="cls-4" x="48.02" y="36.59" width="0.52" height="5.08"/><rect class="cls-4" x="49.6" y="36.59" width="0.52" height="5.08"/><rect class="cls-4" x="51.19" y="36.59" width="0.52" height="5.08"/><rect class="cls-4" x="52.77" y="36.59" width="0.52" height="5.08"/><rect class="cls-4" x="54.35" y="36.59" width="0.52" height="5.08"/><rect class="cls-4" x="55.93" y="36.59" width="0.52" height="5.08"/><rect class="cls-4" x="57.51" y="36.59" width="0.52" height="5.08"/><rect class="cls-1" x="33.78" y="41.87" width="29" height="5.09" rx="0.43"/><rect class="cls-2" x="44.25" y="41.87" width="14.32" height="5.09"/><rect class="cls-3" x="52.21" y="41.87" width="3.15" height="5.09"/><path class="cls-4" d="M62.35,41.87H34.21a.43.43,0,0,0-.43.43v4.23a.43.43,0,0,0,.43.43H62.35a.43.43,0,0,0,.43-.43V42.3A.43.43,0,0,0,62.35,41.87Zm-.09,4.32a.29.29,0,0,1-.3.29H34.6a.3.3,0,0,1-.3-.29V42.64a.3.3,0,0,1,.3-.3H62a.29.29,0,0,1,.3.3Z"/><rect class="cls-4" x="35.36" y="41.87" width="0.52" height="5.08"/><rect class="cls-4" x="36.95" y="41.87" width="0.52" height="5.08"/><rect class="cls-4" x="38.53" y="41.87" width="0.52" height="5.08"/><rect class="cls-4" x="40.11" y="41.87" width="0.52" height="5.08"/><rect class="cls-4" x="41.69" y="41.87" width="0.52" height="5.08"/><rect class="cls-4" x="43.28" y="41.87" width="0.52" height="5.08"/><rect class="cls-4" x="44.86" y="41.87" width="0.52" height="5.08"/><rect class="cls-4" x="46.44" y="41.87" width="0.52" height="5.08"/><rect class="cls-4" x="48.02" y="41.87" width="0.52" height="5.08"/><rect class="cls-4" x="49.6" y="41.87" width="0.52" height="5.08"/><rect class="cls-4" x="51.19" y="41.87" width="0.52" height="5.08"/><rect class="cls-4" x="52.77" y="41.87" width="0.52" height="5.08"/><rect class="cls-4" x="54.35" y="41.87" width="0.52" height="5.08"/><rect class="cls-4" x="55.93" y="41.87" width="0.52" height="5.08"/><rect class="cls-4" x="57.51" y="41.87" width="0.52" height="5.08"/><rect class="cls-4" x="59.1" y="41.87" width="0.52" height="5.08"/><rect class="cls-4" x="60.68" y="41.87" width="0.52" height="5.08"/><rect class="cls-1" x="32.63" y="47.15" width="29" height="5.09" rx="0.43"/><rect class="cls-2" x="43.1" y="47.15" width="14.32" height="5.09"/><rect class="cls-3" x="51.06" y="47.15" width="3.15" height="5.09"/><path class="cls-4" d="M61.2,47.15H33.05a.42.42,0,0,0-.42.43v4.23a.42.42,0,0,0,.42.43H61.2a.42.42,0,0,0,.42-.43V47.58A.42.42,0,0,0,61.2,47.15Zm-.1,4.32a.3.3,0,0,1-.29.3H33.44a.3.3,0,0,1-.29-.3V47.92a.3.3,0,0,1,.29-.3H60.81a.3.3,0,0,1,.29.3Z"/><rect class="cls-4" x="34.21" y="47.16" width="0.52" height="5.08"/><rect class="cls-4" x="35.79" y="47.16" width="0.52" height="5.08"/><rect class="cls-4" x="37.37" y="47.16" width="0.52" height="5.08"/><rect class="cls-4" x="38.95" y="47.16" width="0.52" height="5.08"/><rect class="cls-4" x="40.54" y="47.16" width="0.52" height="5.08"/><rect class="cls-4" x="42.12" y="47.16" width="0.52" height="5.08"/><rect class="cls-4" x="43.7" y="47.16" width="0.52" height="5.08"/><rect class="cls-4" x="45.28" y="47.16" width="0.52" height="5.08"/><rect class="cls-4" x="46.86" y="47.16" width="0.52" height="5.08"/><rect class="cls-4" x="48.45" y="47.16" width="0.52" height="5.08"/><rect class="cls-4" x="50.03" y="47.16" width="0.52" height="5.08"/><rect class="cls-4" x="51.61" y="47.16" width="0.52" height="5.08"/><rect class="cls-4" x="53.19" y="47.16" width="0.52" height="5.08"/><rect class="cls-4" x="54.78" y="47.16" width="0.52" height="5.08"/><rect class="cls-4" x="56.36" y="47.16" width="0.52" height="5.08"/><rect class="cls-4" x="57.94" y="47.16" width="0.52" height="5.08"/><rect class="cls-4" x="59.52" y="47.16" width="0.52" height="5.08"/><rect class="cls-1" x="34.77" y="52.43" width="29" height="5.09" rx="0.43"/><rect class="cls-2" x="45.24" y="52.43" width="14.32" height="5.09"/><rect class="cls-3" x="53.2" y="52.43" width="3.15" height="5.09"/><path class="cls-4" d="M63.34,52.43H35.2a.43.43,0,0,0-.43.43v4.23a.43.43,0,0,0,.43.43H63.34a.43.43,0,0,0,.43-.43V52.86A.43.43,0,0,0,63.34,52.43Zm-.09,4.32a.3.3,0,0,1-.3.3H35.59a.31.31,0,0,1-.3-.3V53.2a.31.31,0,0,1,.3-.3H63a.3.3,0,0,1,.3.3Z"/><rect class="cls-4" x="36.35" y="52.44" width="0.52" height="5.08"/><rect class="cls-4" x="37.94" y="52.44" width="0.52" height="5.08"/><rect class="cls-4" x="39.52" y="52.44" width="0.52" height="5.08"/><rect class="cls-4" x="41.1" y="52.44" width="0.52" height="5.08"/><rect class="cls-4" x="42.68" y="52.44" width="0.52" height="5.08"/><rect class="cls-4" x="44.26" y="52.44" width="0.52" height="5.08"/><rect class="cls-4" x="45.85" y="52.44" width="0.52" height="5.08"/><rect class="cls-4" x="47.43" y="52.44" width="0.52" height="5.08"/><rect class="cls-4" x="49.01" y="52.44" width="0.52" height="5.08"/><rect class="cls-4" x="50.59" y="52.44" width="0.52" height="5.08"/><rect class="cls-4" x="52.18" y="52.44" width="0.52" height="5.08"/><rect class="cls-4" x="53.76" y="52.44" width="0.52" height="5.08"/><rect class="cls-4" x="55.34" y="52.44" width="0.52" height="5.08"/><rect class="cls-4" x="56.92" y="52.44" width="0.52" height="5.08"/><rect class="cls-4" x="58.5" y="52.44" width="0.52" height="5.08"/><rect class="cls-4" x="60.09" y="52.44" width="0.52" height="5.08"/><rect class="cls-4" x="61.67" y="52.44" width="0.52" height="5.08"/><g class="cls-5"><path class="cls-4" d="M37.71,20.74h-4.4a.43.43,0,0,0-.42.43h0v4.24a.42.42,0,0,0,.42.42h4.4a.42.42,0,0,0,.43-.42V21.17A.43.43,0,0,0,37.71,20.74Z"/><path class="cls-4" d="M38.39,26H31.21a.51.51,0,0,0-.17,0l-.07,0-.06,0-.05.06a.3.3,0,0,0,0,.08.32.32,0,0,0,0,.16v4.24a.29.29,0,0,0,0,.16.3.3,0,0,0,0,.08A.57.57,0,0,0,31,31l.07,0a.53.53,0,0,0,.17,0h7.18a.44.44,0,0,0,.43-.43V26.45a.43.43,0,0,0-.13-.3A.42.42,0,0,0,38.39,26Z"/><path class="cls-4" d="M39.87,31.31H33.62a.43.43,0,0,0-.43.43V36a.43.43,0,0,0,.43.43h6.25a.4.4,0,0,0,.34-.18A.38.38,0,0,0,40.3,36V31.74A.43.43,0,0,0,39.87,31.31Z"/><path class="cls-4" d="M36.6,36.59H31.05a.44.44,0,0,0-.4.26.47.47,0,0,0,0,.17v4.23a.43.43,0,0,0,.43.43H36.6a.41.41,0,0,0,.24-.08.43.43,0,0,0,.12-.11s0-.05,0-.08a.41.41,0,0,0,0-.16V37A.43.43,0,0,0,36.6,36.59Z"/><path class="cls-4" d="M38.61,41.87h-4.4a.39.39,0,0,0-.35.19.16.16,0,0,0,0,.07.33.33,0,0,0,0,.17v4.23a.35.35,0,0,0,0,.17.25.25,0,0,0,0,.07l.11.11a.41.41,0,0,0,.24.08h4.4a.43.43,0,0,0,.43-.43V42.3A.43.43,0,0,0,38.61,41.87Z"/><path class="cls-4" d="M38,47.34a.34.34,0,0,0-.12-.12.48.48,0,0,0-.24-.07H33.05a.51.51,0,0,0-.24.07.44.44,0,0,0-.18.36v4.23a.44.44,0,0,0,.18.36.51.51,0,0,0,.24.07h4.63a.43.43,0,0,0,.43-.43V47.58a.47.47,0,0,0,0-.17Z"/><path class="cls-4" d="M35.56,52.62a.34.34,0,0,0-.12-.12.48.48,0,0,0-.24-.07.42.42,0,0,0-.39.26.33.33,0,0,0,0,.17v4.23a.43.43,0,0,0,.43.43.48.48,0,0,0,.24-.07.34.34,0,0,0,.12-.12.25.25,0,0,1,0-.07.47.47,0,0,0,0-.17V52.86a.47.47,0,0,0,0-.17A.25.25,0,0,1,35.56,52.62Z"/></g><rect class="cls-1" x="5.67" y="20.74" width="29" height="5.09" rx="0.43"/><rect class="cls-2" x="16.14" y="20.74" width="14.32" height="5.09"/><rect class="cls-3" x="24.1" y="20.74" width="3.15" height="5.09"/><path class="cls-4" d="M34.24,20.74H6.1a.43.43,0,0,0-.43.43v4.24a.42.42,0,0,0,.43.42H34.24a.42.42,0,0,0,.43-.42V21.17A.43.43,0,0,0,34.24,20.74Zm-.09,4.32a.3.3,0,0,1-.3.3H6.49a.29.29,0,0,1-.3-.3V21.52a.29.29,0,0,1,.3-.3H33.85a.3.3,0,0,1,.3.3Z"/><rect class="cls-4" x="7.25" y="20.75" width="0.52" height="5.08"/><rect class="cls-4" x="8.83" y="20.75" width="0.52" height="5.08"/><rect class="cls-4" x="10.42" y="20.75" width="0.52" height="5.08"/><rect class="cls-4" x="12" y="20.75" width="0.52" height="5.08"/><rect class="cls-4" x="13.58" y="20.75" width="0.52" height="5.08"/><rect class="cls-4" x="15.16" y="20.75" width="0.52" height="5.08"/><rect class="cls-4" x="16.74" y="20.75" width="0.52" height="5.08"/><rect class="cls-4" x="18.33" y="20.75" width="0.52" height="5.08"/><rect class="cls-4" x="19.91" y="20.75" width="0.52" height="5.08"/><rect class="cls-4" x="21.49" y="20.75" width="0.52" height="5.08"/><rect class="cls-4" x="23.07" y="20.75" width="0.52" height="5.08"/><rect class="cls-4" x="24.66" y="20.75" width="0.52" height="5.08"/><rect class="cls-4" x="26.24" y="20.75" width="0.52" height="5.08"/><rect class="cls-4" x="27.82" y="20.75" width="0.52" height="5.08"/><rect class="cls-4" x="29.4" y="20.75" width="0.52" height="5.08"/><rect class="cls-4" x="30.98" y="20.75" width="0.52" height="5.08"/><rect class="cls-4" x="32.57" y="20.75" width="0.52" height="5.08"/><rect class="cls-1" x="6.34" y="26.03" width="29" height="5.09" rx="0.43"/><rect class="cls-2" x="16.81" y="26.03" width="14.32" height="5.09"/><rect class="cls-3" x="24.77" y="26.03" width="3.15" height="5.09"/><path class="cls-4" d="M34.91,26H6.77a.43.43,0,0,0-.43.42v4.24a.44.44,0,0,0,.43.43H34.91a.43.43,0,0,0,.43-.43V26.45A.42.42,0,0,0,34.91,26Zm-.09,4.31a.29.29,0,0,1-.3.3H7.16a.3.3,0,0,1-.3-.3V26.8a.3.3,0,0,1,.3-.3H34.52a.29.29,0,0,1,.3.3Z"/><rect class="cls-4" x="7.93" y="26.03" width="0.52" height="5.08"/><rect class="cls-4" x="9.51" y="26.03" width="0.52" height="5.08"/><rect class="cls-4" x="11.09" y="26.03" width="0.52" height="5.08"/><rect class="cls-4" x="12.67" y="26.03" width="0.52" height="5.08"/><rect class="cls-4" x="14.25" y="26.03" width="0.52" height="5.08"/><rect class="cls-4" x="15.84" y="26.03" width="0.52" height="5.08"/><rect class="cls-4" x="17.42" y="26.03" width="0.52" height="5.08"/><rect class="cls-4" x="19" y="26.03" width="0.52" height="5.08"/><rect class="cls-4" x="20.58" y="26.03" width="0.52" height="5.08"/><rect class="cls-4" x="22.17" y="26.03" width="0.52" height="5.08"/><rect class="cls-4" x="23.75" y="26.03" width="0.52" height="5.08"/><rect class="cls-4" x="25.33" y="26.03" width="0.52" height="5.08"/><rect class="cls-4" x="26.91" y="26.03" width="0.52" height="5.08"/><rect class="cls-4" x="28.49" y="26.03" width="0.52" height="5.08"/><rect class="cls-4" x="30.08" y="26.03" width="0.52" height="5.08"/><rect class="cls-4" x="31.66" y="26.03" width="0.52" height="5.08"/><rect class="cls-4" x="33.24" y="26.03" width="0.52" height="5.08"/><rect class="cls-1" x="6.17" y="15.46" width="29" height="5.09" rx="0.43"/><rect class="cls-2" x="16.64" y="15.46" width="14.32" height="5.09"/><rect class="cls-3" x="24.6" y="15.46" width="3.15" height="5.09"/><path class="cls-4" d="M34.74,15.46H6.59a.42.42,0,0,0-.42.43v4.23a.43.43,0,0,0,.42.43H34.74a.44.44,0,0,0,.43-.43V15.89A.43.43,0,0,0,34.74,15.46Zm-.1,4.32a.29.29,0,0,1-.29.29H7a.29.29,0,0,1-.3-.29V16.23a.29.29,0,0,1,.3-.3H34.35a.29.29,0,0,1,.29.3Z"/><rect class="cls-4" x="7.75" y="15.46" width="0.52" height="5.08"/><rect class="cls-4" x="9.33" y="15.46" width="0.52" height="5.08"/><rect class="cls-4" x="10.91" y="15.46" width="0.52" height="5.08"/><rect class="cls-4" x="12.49" y="15.46" width="0.52" height="5.08"/><rect class="cls-4" x="14.08" y="15.46" width="0.52" height="5.08"/><rect class="cls-4" x="15.66" y="15.46" width="0.52" height="5.08"/><rect class="cls-4" x="17.24" y="15.46" width="0.52" height="5.08"/><rect class="cls-4" x="18.82" y="15.46" width="0.52" height="5.08"/><rect class="cls-4" x="20.41" y="15.46" width="0.52" height="5.08"/><rect class="cls-4" x="21.99" y="15.46" width="0.52" height="5.08"/><rect class="cls-4" x="23.57" y="15.46" width="0.52" height="5.08"/><rect class="cls-4" x="25.15" y="15.46" width="0.52" height="5.08"/><rect class="cls-4" x="26.73" y="15.46" width="0.52" height="5.08"/><rect class="cls-4" x="28.32" y="15.46" width="0.52" height="5.08"/><rect class="cls-4" x="29.9" y="15.46" width="0.52" height="5.08"/><rect class="cls-4" x="31.48" y="15.46" width="0.52" height="5.08"/><rect class="cls-4" x="33.06" y="15.46" width="0.52" height="5.08"/><rect class="cls-1" x="8.54" y="10.16" width="29" height="5.09" rx="0.43"/><rect class="cls-2" x="19.01" y="10.16" width="14.32" height="5.09"/><rect class="cls-3" x="26.97" y="10.16" width="3.15" height="5.09"/><path class="cls-4" d="M37.11,10.16H9a.42.42,0,0,0-.42.43v4.23a.42.42,0,0,0,.42.43H37.11a.42.42,0,0,0,.42-.43V10.59A.42.42,0,0,0,37.11,10.16ZM37,14.48a.29.29,0,0,1-.29.3H9.35a.29.29,0,0,1-.29-.3V10.93a.29.29,0,0,1,.29-.29H36.72a.29.29,0,0,1,.29.29Z"/><rect class="cls-4" x="10.12" y="10.17" width="0.52" height="5.08"/><rect class="cls-4" x="11.7" y="10.17" width="0.52" height="5.08"/><rect class="cls-4" x="13.28" y="10.17" width="0.52" height="5.08"/><rect class="cls-4" x="14.86" y="10.17" width="0.52" height="5.08"/><rect class="cls-4" x="16.45" y="10.17" width="0.52" height="5.08"/><rect class="cls-4" x="18.03" y="10.17" width="0.52" height="5.08"/><rect class="cls-4" x="19.61" y="10.17" width="0.52" height="5.08"/><rect class="cls-4" x="21.19" y="10.17" width="0.52" height="5.08"/><rect class="cls-4" x="22.77" y="10.17" width="0.52" height="5.08"/><rect class="cls-4" x="24.36" y="10.17" width="0.52" height="5.08"/><rect class="cls-4" x="25.94" y="10.17" width="0.52" height="5.08"/><rect class="cls-4" x="27.52" y="10.17" width="0.52" height="5.08"/><rect class="cls-4" x="29.1" y="10.17" width="0.52" height="5.08"/><rect class="cls-4" x="30.69" y="10.17" width="0.52" height="5.08"/><rect class="cls-4" x="32.27" y="10.17" width="0.52" height="5.08"/><rect class="cls-4" x="33.85" y="10.17" width="0.52" height="5.08"/><rect class="cls-4" x="35.43" y="10.17" width="0.52" height="5.08"/><rect class="cls-1" x="7.82" y="31.31" width="29" height="5.09" rx="0.43"/><rect class="cls-2" x="18.3" y="31.31" width="14.32" height="5.09"/><rect class="cls-3" x="26.26" y="31.31" width="3.15" height="5.09"/><path class="cls-4" d="M36.4,31.31H8.25a.43.43,0,0,0-.43.43V36a.44.44,0,0,0,.43.43H36.4a.43.43,0,0,0,.42-.43V31.74A.42.42,0,0,0,36.4,31.31Zm-.1,4.31a.29.29,0,0,1-.3.3H8.64a.29.29,0,0,1-.29-.3V32.08a.29.29,0,0,1,.29-.3H36a.29.29,0,0,1,.3.3Z"/><rect class="cls-4" x="9.41" y="31.31" width="0.52" height="5.08"/><rect class="cls-4" x="10.99" y="31.31" width="0.52" height="5.08"/><rect class="cls-4" x="12.57" y="31.31" width="0.52" height="5.08"/><rect class="cls-4" x="14.15" y="31.31" width="0.52" height="5.08"/><rect class="cls-4" x="15.74" y="31.31" width="0.52" height="5.08"/><rect class="cls-4" x="17.32" y="31.31" width="0.52" height="5.08"/><rect class="cls-4" x="18.9" y="31.31" width="0.52" height="5.08"/><rect class="cls-4" x="20.48" y="31.31" width="0.52" height="5.08"/><rect class="cls-4" x="22.06" y="31.31" width="0.52" height="5.08"/><rect class="cls-4" x="23.65" y="31.31" width="0.52" height="5.08"/><rect class="cls-4" x="25.23" y="31.31" width="0.52" height="5.08"/><rect class="cls-4" x="26.81" y="31.31" width="0.52" height="5.08"/><rect class="cls-4" x="28.39" y="31.31" width="0.52" height="5.08"/><rect class="cls-4" x="29.98" y="31.31" width="0.52" height="5.08"/><rect class="cls-4" x="31.56" y="31.31" width="0.52" height="5.08"/><rect class="cls-4" x="33.14" y="31.31" width="0.52" height="5.08"/><rect class="cls-4" x="34.72" y="31.31" width="0.52" height="5.08"/><rect class="cls-1" x="4.56" y="36.59" width="29" height="5.09" rx="0.43"/><rect class="cls-2" x="15.03" y="36.59" width="14.32" height="5.09"/><rect class="cls-3" x="22.99" y="36.59" width="3.15" height="5.09"/><path class="cls-4" d="M33.13,36.59H5a.43.43,0,0,0-.43.43v4.23a.43.43,0,0,0,.43.43H33.13a.43.43,0,0,0,.43-.43V37A.43.43,0,0,0,33.13,36.59ZM33,40.91a.3.3,0,0,1-.3.29H5.38a.29.29,0,0,1-.3-.29V37.36a.29.29,0,0,1,.3-.3H32.74a.3.3,0,0,1,.3.3Z"/><rect class="cls-4" x="6.14" y="36.59" width="0.52" height="5.08"/><rect class="cls-4" x="7.72" y="36.59" width="0.52" height="5.08"/><rect class="cls-4" x="9.31" y="36.59" width="0.52" height="5.08"/><rect class="cls-4" x="10.89" y="36.59" width="0.52" height="5.08"/><rect class="cls-4" x="12.47" y="36.59" width="0.52" height="5.08"/><rect class="cls-4" x="14.05" y="36.59" width="0.52" height="5.08"/><rect class="cls-4" x="15.63" y="36.59" width="0.52" height="5.08"/><rect class="cls-4" x="17.22" y="36.59" width="0.52" height="5.08"/><rect class="cls-4" x="18.8" y="36.59" width="0.52" height="5.08"/><rect class="cls-4" x="20.38" y="36.59" width="0.52" height="5.08"/><rect class="cls-4" x="21.96" y="36.59" width="0.52" height="5.08"/><rect class="cls-4" x="23.54" y="36.59" width="0.52" height="5.08"/><rect class="cls-4" x="25.13" y="36.59" width="0.52" height="5.08"/><rect class="cls-4" x="26.71" y="36.59" width="0.52" height="5.08"/><rect class="cls-4" x="28.29" y="36.59" width="0.52" height="5.08"/><rect class="cls-4" x="29.87" y="36.59" width="0.52" height="5.08"/><rect class="cls-4" x="31.46" y="36.59" width="0.52" height="5.08"/><rect class="cls-1" x="6.57" y="41.87" width="29" height="5.09" rx="0.43"/><rect class="cls-2" x="17.04" y="41.87" width="14.32" height="5.09"/><rect class="cls-3" x="25" y="41.87" width="3.15" height="5.09"/><path class="cls-4" d="M35.14,41.87H7a.43.43,0,0,0-.43.43v4.23A.43.43,0,0,0,7,47H35.14a.43.43,0,0,0,.43-.43V42.3A.43.43,0,0,0,35.14,41.87ZM35,46.19a.29.29,0,0,1-.29.29H7.39a.29.29,0,0,1-.3-.29V42.64a.29.29,0,0,1,.3-.3H34.75a.29.29,0,0,1,.29.3Z"/><rect class="cls-4" x="8.15" y="41.87" width="0.52" height="5.08"/><rect class="cls-4" x="9.73" y="41.87" width="0.52" height="5.08"/><rect class="cls-4" x="11.31" y="41.87" width="0.52" height="5.08"/><rect class="cls-4" x="12.89" y="41.87" width="0.52" height="5.08"/><rect class="cls-4" x="14.48" y="41.87" width="0.52" height="5.08"/><rect class="cls-4" x="16.06" y="41.87" width="0.52" height="5.08"/><rect class="cls-4" x="17.64" y="41.87" width="0.52" height="5.08"/><rect class="cls-4" x="19.22" y="41.87" width="0.52" height="5.08"/><rect class="cls-4" x="20.81" y="41.87" width="0.52" height="5.08"/><rect class="cls-4" x="22.39" y="41.87" width="0.52" height="5.08"/><rect class="cls-4" x="23.97" y="41.87" width="0.52" height="5.08"/><rect class="cls-4" x="25.55" y="41.87" width="0.52" height="5.08"/><rect class="cls-4" x="27.13" y="41.87" width="0.52" height="5.08"/><rect class="cls-4" x="28.72" y="41.87" width="0.52" height="5.08"/><rect class="cls-4" x="30.3" y="41.87" width="0.52" height="5.08"/><rect class="cls-4" x="31.88" y="41.87" width="0.52" height="5.08"/><rect class="cls-4" x="33.46" y="41.87" width="0.52" height="5.08"/><rect class="cls-1" x="5.64" y="47.15" width="29" height="5.09" rx="0.43"/><rect class="cls-2" x="16.11" y="47.15" width="14.32" height="5.09"/><rect class="cls-3" x="24.07" y="47.15" width="3.15" height="5.09"/><path class="cls-4" d="M34.21,47.15H6.07a.43.43,0,0,0-.43.43v4.23a.43.43,0,0,0,.43.43H34.21a.43.43,0,0,0,.43-.43V47.58A.43.43,0,0,0,34.21,47.15Zm-.09,4.32a.3.3,0,0,1-.3.3H6.46a.3.3,0,0,1-.3-.3V47.92a.3.3,0,0,1,.3-.3H33.82a.3.3,0,0,1,.3.3Z"/><rect class="cls-4" x="7.22" y="47.16" width="0.52" height="5.08"/><rect class="cls-4" x="8.8" y="47.16" width="0.52" height="5.08"/><rect class="cls-4" x="10.39" y="47.16" width="0.52" height="5.08"/><rect class="cls-4" x="11.97" y="47.16" width="0.52" height="5.08"/><rect class="cls-4" x="13.55" y="47.16" width="0.52" height="5.08"/><rect class="cls-4" x="15.13" y="47.16" width="0.52" height="5.08"/><rect class="cls-4" x="16.72" y="47.16" width="0.52" height="5.08"/><rect class="cls-4" x="18.3" y="47.16" width="0.52" height="5.08"/><rect class="cls-4" x="19.88" y="47.16" width="0.52" height="5.08"/><rect class="cls-4" x="21.46" y="47.16" width="0.52" height="5.08"/><rect class="cls-4" x="23.04" y="47.16" width="0.52" height="5.08"/><rect class="cls-4" x="24.63" y="47.16" width="0.52" height="5.08"/><rect class="cls-4" x="26.21" y="47.16" width="0.52" height="5.08"/><rect class="cls-4" x="27.79" y="47.16" width="0.52" height="5.08"/><rect class="cls-4" x="29.37" y="47.16" width="0.52" height="5.08"/><rect class="cls-4" x="30.95" y="47.16" width="0.52" height="5.08"/><rect class="cls-4" x="32.54" y="47.16" width="0.52" height="5.08"/><rect class="cls-1" x="3.16" y="52.43" width="29" height="5.09" rx="0.43"/><rect class="cls-2" x="13.63" y="52.43" width="14.32" height="5.09"/><rect class="cls-3" x="21.59" y="52.43" width="3.15" height="5.09"/><path class="cls-4" d="M31.73,52.43H3.59a.43.43,0,0,0-.43.43v4.23a.43.43,0,0,0,.43.43H31.73a.43.43,0,0,0,.43-.43V52.86A.43.43,0,0,0,31.73,52.43Zm-.09,4.32a.31.31,0,0,1-.3.3H4a.3.3,0,0,1-.3-.3V53.2a.3.3,0,0,1,.3-.3H31.34a.31.31,0,0,1,.3.3Z"/><rect class="cls-4" x="4.74" y="52.44" width="0.52" height="5.08"/><rect class="cls-4" x="6.32" y="52.44" width="0.52" height="5.08"/><rect class="cls-4" x="7.9" y="52.44" width="0.52" height="5.08"/><rect class="cls-4" x="9.49" y="52.44" width="0.52" height="5.08"/><rect class="cls-4" x="11.07" y="52.44" width="0.52" height="5.08"/><rect class="cls-4" x="12.65" y="52.44" width="0.52" height="5.08"/><rect class="cls-4" x="14.23" y="52.44" width="0.52" height="5.08"/><rect class="cls-4" x="15.82" y="52.44" width="0.52" height="5.08"/><rect class="cls-4" x="17.4" y="52.44" width="0.52" height="5.08"/><rect class="cls-4" x="18.98" y="52.44" width="0.52" height="5.08"/><rect class="cls-4" x="20.56" y="52.44" width="0.52" height="5.08"/><rect class="cls-4" x="22.14" y="52.44" width="0.52" height="5.08"/><rect class="cls-4" x="23.73" y="52.44" width="0.52" height="5.08"/><rect class="cls-4" x="25.31" y="52.44" width="0.52" height="5.08"/><rect class="cls-4" x="26.89" y="52.44" width="0.52" height="5.08"/><rect class="cls-4" x="28.47" y="52.44" width="0.52" height="5.08"/><rect class="cls-4" x="30.05" y="52.44" width="0.52" height="5.08"/><rect class="cls-1" x="41.72" y="-3.65" width="5.09" height="29" rx="0.43" transform="translate(11.81 42.86) rotate(-58.38)"/><rect class="cls-2" x="44.39" y="5.34" width="5.09" height="14.32" transform="translate(11.68 45.91) rotate(-58.38)"/><rect class="cls-3" x="46.41" y="12.17" width="5.09" height="3.15" transform="translate(11.59 48.22) rotate(-58.38)"/><path class="cls-4" d="M57.58,16.06l-24-14.75a.42.42,0,0,0-.59.14l-2.22,3.6a.42.42,0,0,0,.14.59l24,14.76a.43.43,0,0,0,.59-.14l2.22-3.61A.43.43,0,0,0,57.58,16.06Zm-.48.61-1.86,3a.3.3,0,0,1-.41.1L31.53,5.45a.31.31,0,0,1-.1-.42l1.86-3a.29.29,0,0,1,.41-.09L57,16.26A.31.31,0,0,1,57.1,16.67Z"/><rect class="cls-4" x="30.95" y="3.96" width="5.08" height="0.52" transform="translate(12.34 30.52) rotate(-58.38)"/><rect class="cls-4" x="32.3" y="4.79" width="5.08" height="0.52" transform="translate(12.27 32.06) rotate(-58.38)"/><rect class="cls-4" x="33.64" y="5.62" width="5.08" height="0.52" transform="translate(12.21 33.6) rotate(-58.38)"/><rect class="cls-4" x="34.99" y="6.45" width="5.08" height="0.52" transform="translate(12.14 35.15) rotate(-58.38)"/><rect class="cls-4" x="36.34" y="7.27" width="5.08" height="0.52" transform="translate(12.08 36.69) rotate(-58.38)"/><rect class="cls-4" x="37.68" y="8.1" width="5.08" height="0.52" transform="translate(12.01 38.23) rotate(-58.38)"/><rect class="cls-4" x="39.03" y="8.93" width="5.08" height="0.52" transform="translate(11.95 39.77) rotate(-58.38)"/><rect class="cls-4" x="40.38" y="9.76" width="5.08" height="0.52" transform="translate(11.88 41.31) rotate(-58.38)"/><rect class="cls-4" x="41.73" y="10.59" width="5.08" height="0.52" transform="translate(11.81 42.86) rotate(-58.38)"/><rect class="cls-4" x="43.07" y="11.42" width="5.08" height="0.52" transform="translate(11.75 44.4) rotate(-58.38)"/><rect class="cls-4" x="44.42" y="12.25" width="5.08" height="0.52" transform="translate(11.68 45.94) rotate(-58.38)"/><rect class="cls-4" x="45.77" y="13.08" width="5.08" height="0.52" transform="translate(11.62 47.48) rotate(-58.38)"/><rect class="cls-4" x="47.12" y="13.91" width="5.08" height="0.52" transform="translate(11.55 49.02) rotate(-58.38)"/><rect class="cls-4" x="48.46" y="14.74" width="5.08" height="0.52" transform="translate(11.49 50.56) rotate(-58.38)"/><rect class="cls-4" x="49.81" y="15.57" width="5.08" height="0.52" transform="translate(11.42 52.11) rotate(-58.38)"/><rect class="cls-4" x="51.16" y="16.4" width="5.08" height="0.52" transform="translate(11.36 53.65) rotate(-58.38)"/><rect class="cls-4" x="52.5" y="17.23" width="5.08" height="0.52" transform="matrix(0.52, -0.85, 0.85, 0.52, 11.29, 55.19)"/><rect class="cls-6" x="36.47" y="37.23" width="32.31" height="16.56" transform="translate(-10.14 15.48) rotate(-15.28)"/><path class="cls-7" d="M34.57,41.62,39.06,58l31.62-8.63L66.19,33Zm4.82,15.86L35.14,42l30.72-8.4,4.25,15.53Z"/><path class="cls-8" d="M66.48,38.13l-1-3.78-3.79,1-22,6-3.79,1,1,3.79,1.83,6.68,1,3.79,3.79-1,22-6,3.79-1-1-3.79Zm.07,6.6a2.82,2.82,0,0,0-2,3.45.56.56,0,0,1,0,.12L43.71,54l0-.12a2.8,2.8,0,0,0-3.45-2h0l-1.54-5.62h0a2.82,2.82,0,0,0,2-3.45.56.56,0,0,1,0-.12L61.54,37l0,.13a2.81,2.81,0,0,0,3.45,2h0l1.54,5.62Z"/><circle class="cls-8" cx="43.72" cy="47.95" r="1.57"/><path class="cls-8" d="M61.12,41.56a1.58,1.58,0,1,0,1.93,1.1A1.58,1.58,0,0,0,61.12,41.56Z"/><path class="cls-8" d="M51.49,41.35a4.32,4.32,0,1,0,5.3,3A4.32,4.32,0,0,0,51.49,41.35Zm3.17,5.4a1.33,1.33,0,0,1-.47.66,2,2,0,0,1-.57.3l.12.45a.19.19,0,0,1-.14.24l-.35.09a.2.2,0,0,1-.24-.13l-.12-.44a1.78,1.78,0,0,1-1-.12,1.61,1.61,0,0,1-.74-.74.24.24,0,0,1,.14-.34l.6-.23a1.1,1.1,0,0,0,.49.56,1.06,1.06,0,0,0,.71,0,1,1,0,0,0,.6-.36.57.57,0,0,0,.11-.49.45.45,0,0,0-.17-.25.82.82,0,0,0-.37-.1q-.18,0-.78,0a2.57,2.57,0,0,1-1.13-.16,1.18,1.18,0,0,1-.65-.78,1.16,1.16,0,0,1,0-.69,1.25,1.25,0,0,1,.43-.6,2.12,2.12,0,0,1,.52-.28l-.14-.5a.19.19,0,0,1,.14-.24l.35-.1a.21.21,0,0,1,.24.14l.13.5a1.61,1.61,0,0,1,1,.11,1.27,1.27,0,0,1,.6.57.26.26,0,0,1-.15.37l-.62.2a.83.83,0,0,0-.39-.43,1,1,0,0,0-.61,0,1,1,0,0,0-.56.33.32.32,0,0,0-.07.31.38.38,0,0,0,.21.24,2.7,2.7,0,0,0,.9.07,4.54,4.54,0,0,1,1.06,0,1.27,1.27,0,0,1,1,1A1.35,1.35,0,0,1,54.66,46.75Z"/><rect class="cls-6" x="39.33" y="41.24" width="32.31" height="16.56"/><path class="cls-7" d="M39.1,58H71.87V41H39.1Zm.46-16.57H71.41v16.1H39.56Z"/><path class="cls-8" d="M44.1,42.13H40.17V56.91H70.8V42.13H44.1Zm25,4.48h0v5.83h0a2.81,2.81,0,0,0-2.81,2.81.53.53,0,0,0,0,.13H44.64a.53.53,0,0,0,0-.13,2.81,2.81,0,0,0-2.81-2.81h0V46.61h0a2.81,2.81,0,0,0,2.81-2.81.62.62,0,0,0,0-.13H66.33a.62.62,0,0,0,0,.13A2.81,2.81,0,0,0,69.13,46.61Z"/><path class="cls-8" d="M46.25,48a1.58,1.58,0,0,0,0,3.15,1.58,1.58,0,1,0,0-3.15Z"/><path class="cls-8" d="M64.72,48a1.58,1.58,0,1,0,1.57,1.57A1.57,1.57,0,0,0,64.72,48Z"/><path class="cls-8" d="M55.49,45.2a4.32,4.32,0,1,0,4.31,4.32A4.32,4.32,0,0,0,55.49,45.2Zm1.63,6a1.44,1.44,0,0,1-.62.52,2.76,2.76,0,0,1-.64.14v.46a.19.19,0,0,1-.19.19H55.3a.2.2,0,0,1-.19-.19v-.46a1.74,1.74,0,0,1-1-.38,1.61,1.61,0,0,1-.51-.91.25.25,0,0,1,.22-.29l.64-.06a1.09,1.09,0,0,0,.33.67,1.24,1.24,0,0,0,1.35,0,.59.59,0,0,0,.23-.45.38.38,0,0,0-.1-.27A.64.64,0,0,0,56,50c-.11,0-.36-.11-.75-.2a2.6,2.6,0,0,1-1-.46,1.2,1.2,0,0,1-.42-.93,1.24,1.24,0,0,1,.2-.66,1.2,1.2,0,0,1,.57-.46,2.46,2.46,0,0,1,.58-.14v-.51a.2.2,0,0,1,.19-.2h.37a.19.19,0,0,1,.19.2v.51a1.68,1.68,0,0,1,.89.36,1.29,1.29,0,0,1,.42.71.26.26,0,0,1-.24.31l-.65,0a.83.83,0,0,0-.26-.51,1,1,0,0,0-.59-.15,1,1,0,0,0-.63.16.35.35,0,0,0-.15.29.34.34,0,0,0,.14.28,2.39,2.39,0,0,0,.85.31,4.09,4.09,0,0,1,1,.33,1.26,1.26,0,0,1,.5.47,1.3,1.3,0,0,1,.19.73A1.42,1.42,0,0,1,57.12,51.25Z"/><circle class="cls-9" cx="21.98" cy="43.54" r="13.98" transform="translate(-7.76 4.88) rotate(-10.78)"/><path class="cls-7" d="M22,29A14.51,14.51,0,1,0,36.5,43.54,14.53,14.53,0,0,0,22,29Zm0,28A13.45,13.45,0,1,1,35.43,43.54,13.46,13.46,0,0,1,22,57Z"/><circle class="cls-4" cx="21.98" cy="43.54" r="12.51"/><path class="cls-1" d="M22,29.56a14,14,0,1,0,14,14A14,14,0,0,0,22,29.56Zm0,25.67A11.69,11.69,0,1,1,33.67,43.54,11.69,11.69,0,0,1,22,55.23Z"/><circle class="cls-1" cx="21.98" cy="43.54" r="10.98" transform="translate(-26.61 47.76) rotate(-68.17)"/><path class="cls-2" d="M11.62,43.54a10.36,10.36,0,0,0,20.72,0C32.34,37.82,11.62,37.82,11.62,43.54Z"/></g><g id="Слой_4" data-name="Слой 4"><path class="cls-4" d="M17.2,43.67l-1.87,1.88-1.88-1.88,1.87-1.87Zm4.55-4.55L25,42.33l1.87-1.87-5.09-5.09-5.09,5.09,1.88,1.87Zm6.43,2.68-1.87,1.87,1.87,1.88,1.87-1.88Zm-6.43,6.43L18.54,45l-1.87,1.88L21.75,52l5.09-5.09L25,45Zm0-2.68,1.88-1.88L21.75,41.8l-1.87,1.87Z"/></g></svg>