<svg id="Слой_5" data-name="Слой 5" xmlns="http://www.w3.org/2000/svg" viewBox="0 0 75 60"><defs><style>.cls-1{fill:#c56129;}.cls-2{fill:#dc840d;}.cls-3{fill:#f3ac05;}.cls-4{fill:#8d681b;}.cls-5{fill:#fff;}.cls-6{fill:#fcce00;}</style></defs><path class="cls-1" d="M34.34,7.56h0l0,0,0,0h0A11,11,0,0,0,31.8,5.7l-.95,0L26.47,12,24,15.15,12.81,26.75,7,31.81a4.13,4.13,0,0,0,.9,2.07h0l0,0,0,0H8a4.06,4.06,0,0,0,2.07.91L15.1,29,26.7,17.87l3.11-2.5L36.18,11l0-1A11.77,11.77,0,0,0,34.34,7.56Z"/><path class="cls-2" d="M35.62,11.4l-.7-.08A28.3,28.3,0,0,0,32.82,9a30.36,30.36,0,0,0-2.3-2.11l-.08-.7A25.12,25.12,0,0,0,20.2,1.53a.49.49,0,0,0-.25.93A41.77,41.77,0,0,1,28.28,8L26,11.46l.29.9a7.83,7.83,0,0,1,1.82,1.39,8.2,8.2,0,0,1,1.39,1.82l.9.29,3.51-2.3a42.5,42.5,0,0,1,5.49,8.33.48.48,0,0,0,.92-.24A25,25,0,0,0,35.62,11.4Z"/><path class="cls-3" d="M29.85,7.49l-2.67,4.2a18.44,18.44,0,0,1,1.6,1.37,18.27,18.27,0,0,1,1.38,1.6L34.36,12c-.77-.92-1.41-1.68-2.12-2.39A31.29,31.29,0,0,0,29.85,7.49Z"/><polygon class="cls-2" points="54.33 46.56 47.46 37.18 45.52 30.26 40.78 23.68 39.36 32.05 33.67 40.13 27.9 37.18 25.39 41.41 21.02 40.13 15.92 49.96 10.66 49.96 0.89 58.6 62.16 58.6 54.92 54.68 54.33 46.56"/><polygon class="cls-1" points="40.78 23.68 39.36 32.05 33.67 40.13 43.78 42.17 43.18 32.4 40.78 23.68"/><polygon class="cls-1" points="31.13 41.41 27.9 37.18 25.39 41.41 26.5 43.21 35.49 45.42 34.18 42.72 31.13 41.41"/><polygon class="cls-1" points="26.24 49.96 23.8 48.04 22.48 48.7 20.13 47.54 21.02 40.13 15.92 49.96 16.21 51.7 18.83 54.41 23.26 53.19 30.44 53.19 28.67 51.88 26.24 49.96"/><polygon class="cls-1" points="14.55 57.64 13.42 56.94 12.15 55.63 10.66 56.24 8.01 54.41 10.66 49.96 0.89 58.6 22.48 58.6 15.42 57.2 14.55 57.64"/><polygon class="cls-1" points="49.63 46.79 44.91 49.39 42.08 47.27 40.9 45.42 37.63 47.54 36.45 51.4 33.67 53.58 36.98 54.41 43.18 55.41 47.2 53.19 53.86 53.19 52.81 50.7 49.63 46.79"/><circle class="cls-4" cx="58.51" cy="43.57" r="15.03" transform="translate(-1.8 2.53) rotate(-2.44)"/><path class="cls-5" d="M58.51,28a15.61,15.61,0,1,0,15.6,15.6A15.62,15.62,0,0,0,58.51,28Zm0,30.06A14.46,14.46,0,1,1,73,43.57,14.48,14.48,0,0,1,58.51,58Z"/><circle class="cls-2" cx="58.51" cy="43.57" r="13.44" transform="translate(-8.6 14.96) rotate(-13.59)"/><path class="cls-6" d="M58.51,28.54a15,15,0,1,0,15,15A15,15,0,0,0,58.51,28.54Zm0,27.6A12.57,12.57,0,1,1,71.07,43.57,12.57,12.57,0,0,1,58.51,56.14Z"/><circle class="cls-6" cx="58.51" cy="43.57" r="11.81"/><path class="cls-3" d="M47.37,43.57a11.14,11.14,0,1,0,22.27,0C69.64,37.42,47.37,37.42,47.37,43.57Z"/><circle class="cls-4" cx="51.45" cy="16.39" r="6.77"/><path class="cls-5" d="M51.45,9.36a7,7,0,1,0,5,2.06A7,7,0,0,0,51.45,9.36ZM56.05,21A6.51,6.51,0,1,1,58,16.39,6.45,6.45,0,0,1,56.05,21Z"/><circle class="cls-2" cx="51.45" cy="16.39" r="6.05"/><path class="cls-6" d="M46.67,11.6a6.76,6.76,0,1,0,9.56,0A6.77,6.77,0,0,0,46.67,11.6Zm8.78,8.78a5.65,5.65,0,1,1,0-8A5.66,5.66,0,0,1,55.45,20.38Z"/><circle class="cls-6" cx="51.45" cy="16.39" r="5.31"/><path class="cls-3" d="M47.91,19.93A5,5,0,0,0,55,12.84C53,10.88,46,18,47.91,19.93Z"/><circle class="cls-4" cx="30.77" cy="26.76" r="4.57"/><path class="cls-5" d="M30.77,22a4.75,4.75,0,1,0,3.35,1.39A4.71,4.71,0,0,0,30.77,22Zm3.11,7.86a4.4,4.4,0,1,1,0-6.22A4.37,4.37,0,0,1,33.88,29.87Z"/><circle class="cls-2" cx="30.77" cy="26.76" r="4.09"/><path class="cls-6" d="M27.54,23.53a4.57,4.57,0,1,0,6.46,0A4.56,4.56,0,0,0,27.54,23.53Zm5.93,5.93a3.82,3.82,0,1,1,0-5.4A3.82,3.82,0,0,1,33.47,29.46Z"/><circle class="cls-6" cx="30.77" cy="26.76" r="3.59"/><path class="cls-3" d="M28.38,24.36a3.38,3.38,0,1,0,4.78,4.79C34.49,27.83,29.7,23,28.38,24.36Z"/><circle class="cls-4" cx="42.41" cy="3.96" r="3.02" transform="translate(-0.09 6.82) rotate(-9.18)"/><path class="cls-5" d="M42.41.82A3.14,3.14,0,1,0,45.54,4,3.15,3.15,0,0,0,42.41.82Zm0,6A2.91,2.91,0,1,1,45.31,4,2.9,2.9,0,0,1,42.41,6.86Z"/><circle class="cls-2" cx="42.41" cy="3.96" r="2.7"/><path class="cls-6" d="M42.41.94a3,3,0,1,0,3,3A3,3,0,0,0,42.41.94Zm0,5.54A2.53,2.53,0,1,1,44.93,4,2.52,2.52,0,0,1,42.41,6.48Z"/><circle class="cls-6" cx="42.41" cy="3.96" r="2.37" transform="matrix(0.38, -0.92, 0.92, 0.38, 22.43, 41.58)"/><path class="cls-3" d="M40.17,4a2.24,2.24,0,1,0,4.47,0C44.64,2.72,40.17,2.72,40.17,4Z"/><path class="cls-2" d="M54,43.57l-1.88,1.88-1.88-1.88,1.88-1.87ZM58.51,39l3.22,3.22,1.87-1.88-5.09-5.09-5.1,5.09,1.88,1.88Zm6.43,2.69-1.87,1.87,1.87,1.88,1.88-1.88Zm-6.43,6.43-3.22-3.21-1.88,1.87,5.1,5.1,5.09-5.1-1.87-1.87Zm0-2.68,1.87-1.88L58.51,41.7l-1.88,1.87Z"/><path class="cls-2" d="M49.58,17.47l-.24,1.29L48,18.51l.25-1.29Zm.6-3.14,2.22.42.24-1.29-3.5-.67-.67,3.51,1.29.25Zm3.39-.69-.25,1.29,1.29.25.25-1.29Zm-.85,4.43-2.21-.43-.25,1.29,3.51.68.66-3.51-1.29-.25ZM52,17l.25-1.29-1.29-.25-.25,1.29Z"/><path class="cls-2" d="M41.46,3.88l-.4.38-.38-.39.4-.39Zm1-.93.66.68.4-.38-1-1.08-1.08,1,.38.4Zm1.33.58-.4.39.38.39.4-.38ZM42.39,4.84l-.66-.68-.39.39,1,1.07,1.08-1-.38-.4Zm0-.55.4-.38-.39-.4L42,3.89Z"/><path class="cls-2" d="M29.68,25.71l-.89,0,0-.88.88,0Zm2.14-.05,0,1.52.88,0,0-2.4-2.39,0v.89Zm.93,2.13-.88,0v.88l.89,0Zm-3,.06,0-1.51-.88,0,.05,2.4,2.39-.06,0-.88Zm.62-.64.88,0,0-.88-.88,0Z"/></svg>